<svg width="21" height="21" viewBox="0 0 21 21" fill="none" xmlns="http://www.w3.org/2000/svg">
<path d="M10.5 18.5C14.9183 18.5 18.5 14.9183 18.5 10.5C18.5 6.08172 14.9183 2.5 10.5 2.5C6.08172 2.5 2.5 6.08172 2.5 10.5C2.5 14.9183 6.08172 18.5 10.5 18.5Z" fill="#D9D9D9" stroke="black" stroke-linecap="round" stroke-linejoin="round"/>
<path fill-rule="evenodd" clip-rule="evenodd" d="M10.5 11.5C11 11.5 11.5 11 11.5 10.5C11.5 10 11 9.5 10.5 9.5C9.99998 9.5 9.50098 10 9.50098 10.5C9.50098 11 9.99998 11.5 10.5 11.5ZM6.49998 11.5C6.99998 11.5 7.49998 11 7.49998 10.5C7.49998 10 6.99998 9.5 6.49998 9.5C5.99998 9.5 5.50098 10 5.50098 10.5C5.50098 11 5.99998 11.5 6.49998 11.5ZM14.5 11.5C15 11.5 15.5 11 15.5 10.5C15.5 10 15 9.5 14.5 9.5C14 9.5 13.501 10 13.501 10.5C13.501 11 14 11.5 14.5 11.5Z" fill="black"/>
</svg>
