<svg width="60" height="60" viewBox="0 0 60 60" fill="none" xmlns="http://www.w3.org/2000/svg">
<path d="M28.6039 0.0367804C20.2996 0.435327 12.2494 4.45361 6.79791 10.9382C4.78772 13.3295 3.07883 16.2365 2.02902 19.0545C1.04511 21.6943 0.357785 24.9717 0.0564923 28.4742C-0.0188308 29.3932 -0.0188308 32.0893 0.0564923 32.8817C0.249508 34.8182 0.616708 36.3186 1.20046 37.547C1.45468 38.0769 1.84542 38.7333 1.8972 38.7098C1.91132 38.7005 2.03372 38.6395 2.16554 38.5692L2.40563 38.4426L2.48095 38.0769C2.64102 37.336 2.70692 36.7499 2.73517 35.8591C2.76812 34.7806 2.71163 33.8991 2.49037 31.8736C2.24086 29.5808 2.21262 29.2104 2.21262 27.9819C2.21262 26.369 2.35385 25.4218 2.79166 24.184C2.89523 23.8886 3.03646 23.4244 3.10237 23.1525C4.4676 17.6947 7.65471 12.5886 11.8822 9.08612C12.2259 8.80011 12.2353 8.78135 12.3671 8.39218C12.5507 7.82484 12.739 7.52476 13.1721 7.0887C13.9677 6.30099 14.7539 5.94933 17.2725 5.26477C19.5934 4.63178 20.422 4.31295 21.2835 3.73623C21.5424 3.56274 21.7448 3.47365 22.1779 3.34706C23.9245 2.83598 25.6193 2.52183 27.7236 2.3249C28.6651 2.23582 31.5415 2.24988 32.5255 2.34835C35.6608 2.66718 38.2877 3.32361 40.9428 4.44892C42.1056 4.94593 43.5415 5.69614 44.5442 6.32912L44.982 6.60576L45.4198 6.55418C46.625 6.41352 47.5524 6.91522 48.4045 8.18588C48.654 8.55629 49.0118 9.17052 49.5908 10.2349C49.9157 10.8257 50.377 11.5571 50.6736 11.9416C51.0361 12.4152 51.6575 13.0059 52.0624 13.2544C52.439 13.4889 52.6791 13.7796 53.4794 14.9752C55.612 18.1589 57.0525 22.0412 57.5892 26.0501C57.8999 28.3523 57.9235 30.9593 57.6598 33.2099C57.5092 34.4759 57.2644 35.7981 56.9584 36.9797C56.8689 37.322 56.8077 37.622 56.8172 37.6408C56.8642 37.7158 57.528 37.7908 57.8858 37.7674C58.7756 37.7064 59.4017 37.0875 59.7077 35.9528C59.9525 35.0526 59.9666 34.7713 59.9854 31.5688C60.009 27.3958 60.009 27.3724 59.9478 26.7159C59.2181 18.7403 54.8446 11.1539 47.9902 5.97277C44.0781 3.01415 39.5635 1.06362 34.8793 0.313416C33.1798 0.0414669 30.7507 -0.061684 28.6039 0.0367804Z" fill="#D3CAFF"/>
<path d="M13.6853 7.55274C13.723 7.65589 15.5448 13.1933 17.1502 18.1119C17.8281 20.1749 18.6143 22.5475 18.9014 23.3867C19.1886 24.226 19.4805 25.0747 19.5464 25.2716C19.617 25.4733 19.6829 25.6374 19.7017 25.6374C19.7629 25.6374 20.1301 25.0653 20.2855 24.7324C20.9069 23.3961 20.7139 22.0036 19.5699 19.5654C18.2047 16.6537 18.0964 16.4005 17.8469 15.4627C17.7245 14.9985 17.7057 14.8344 17.701 14.2905C17.6963 13.5638 17.7527 13.3715 18.0117 13.2121C18.2047 13.0949 18.313 13.0949 18.6425 13.2121C19.2027 13.4043 19.7818 13.831 21.5801 15.3689C23.0018 16.5833 23.7692 17.1507 24.1599 17.2679C24.2164 17.282 26.4008 18.8433 29.0088 20.7329C31.6169 22.6178 34.5922 24.7699 35.6231 25.5108L37.4968 26.8564L37.5815 26.6548C37.6286 26.547 37.7039 26.3594 37.7463 26.2375L37.8311 26.0218L37.6804 25.7124C37.1531 24.6058 36.0186 23.4336 34.5074 22.4349C34.2155 22.2427 33.5047 21.7926 32.9256 21.4409C31.0661 20.3062 30.2987 19.767 29.5973 19.1012C29.3007 18.8246 27.0128 17.1366 21.6507 13.259C17.5079 10.2582 14.0148 7.72622 13.8877 7.63713C13.7277 7.51992 13.6618 7.49647 13.6853 7.55274Z" fill="#D3CAFF"/>
<path d="M45.1185 8.53246C44.7419 8.79035 44.097 9.23578 43.6827 9.5218C42.308 10.4689 39.3846 12.5601 36.6212 14.5763C35.1194 15.6735 33.194 17.0707 32.3466 17.685C31.4945 18.2992 30.8213 18.8243 30.8401 18.8431C30.9531 18.9556 31.6969 19.0869 32.243 19.0916C32.9021 19.0916 33.3164 19.0119 33.9142 18.7587C34.8981 18.3367 35.5808 17.835 37.3979 16.1658C38.5984 15.0592 39.0032 14.717 39.6341 14.2809C40.2414 13.8542 41.0699 13.4463 41.3336 13.4463C41.6019 13.4463 41.9738 13.5682 42.0962 13.6901C42.5623 14.1918 42.3881 15.1249 41.39 17.4787C40.3732 19.8652 40.166 20.4513 40.086 21.1312C40.0531 21.3891 39.7471 22.4019 38.9515 24.8166C36.7812 31.4512 35.3265 35.9571 35.3501 35.99C35.383 36.0322 36.0562 35.8774 36.334 35.7649C37.4497 35.3007 38.0664 34.2176 38.6455 31.6857C39.0927 29.7211 39.2857 29.0412 39.5399 28.5442C39.6576 28.3097 41.5077 22.6879 41.8749 21.4407C42.1904 20.3716 42.7176 18.7774 43.6121 16.2127C45.0008 12.2272 45.4669 10.6799 45.707 9.29674C45.7823 8.87475 45.8529 8.04952 45.82 8.0589C45.8106 8.0589 45.4952 8.27458 45.1185 8.53246Z" fill="#D3CAFF"/>
<path d="M26.768 22.0783C26.1183 22.1861 25.2097 22.6034 24.4753 23.1286C23.9387 23.5131 23.2372 24.1085 22.1921 25.0744C20.7233 26.4342 19.9136 27.0625 19.085 27.4798C18.812 27.6204 18.5295 27.7517 18.4495 27.7798C18.3742 27.808 16.4111 29.1959 14.0902 30.8697C11.7693 32.5436 8.54922 34.8599 6.92977 36.0227C5.31032 37.1808 3.98746 38.1374 3.99688 38.1467C4.04395 38.203 6.01648 38.4468 7.19811 38.5406C8.07374 38.6109 12.047 38.6203 17.5315 38.564C20.728 38.5312 21.4248 38.5125 22.6017 38.4093L22.9453 38.3765L22.7712 38.0483C22.3569 37.2652 21.6601 36.7823 20.648 36.576C20.0925 36.4635 18.732 36.4775 17.4138 36.6088C16.2228 36.7307 16.1898 36.7307 11.7928 36.6791L9.09531 36.651L9.74497 36.1681C10.8701 35.3428 13.224 33.6455 16.1004 31.5824C22.0179 27.3391 23.9763 25.895 27.1493 23.438C28.8865 22.097 28.797 22.2189 28.1238 22.0924C27.7284 22.022 27.1493 22.0173 26.768 22.0783Z" fill="#D3CAFF"/>
<path d="M40.971 27.6396C40.8863 27.8553 40.8627 28.01 40.8627 28.3804C40.858 28.8306 40.8674 28.8634 41.0369 29.2244C41.1828 29.5292 41.2958 29.6745 41.6489 30.0215C42.1479 30.5092 42.6987 30.8936 44.0122 31.6626C45.4668 32.5113 45.9659 32.8535 46.4884 33.3365C46.6108 33.449 47.6324 34.2039 48.7575 35.0151L50.8054 36.492L50.3064 36.5202C50.0286 36.5389 46.4884 36.5624 42.4351 36.5811C38.3818 36.5952 33.9895 36.6327 32.6666 36.6608C29.7855 36.7218 27.1492 36.8156 27.1068 36.8578C27.0551 36.9093 27.1822 37.4017 27.3046 37.6455C27.6247 38.2831 28.2838 38.6489 29.3383 38.7895C30.2186 38.9068 30.9248 38.8786 33.4905 38.6161C35.2841 38.4332 36.6352 38.4097 37.2331 38.5504C37.5956 38.6348 37.8875 38.6395 45.8482 38.602C50.3817 38.5832 54.6233 38.5551 55.2777 38.5363L56.464 38.5082L54.4774 37.0266C53.3805 36.2107 51.7657 35.0198 50.8854 34.3774C48.7952 32.8582 41.2017 27.4146 41.1311 27.3864C41.1028 27.377 41.0322 27.4802 40.971 27.6396Z" fill="#D3CAFF"/>
<path d="M22.079 28.8725C21.6412 29.5946 21.3917 30.6167 21.4623 31.4045C21.5612 32.5345 21.8719 33.4535 22.8982 35.6712C23.9338 37.9031 24.2351 38.7846 24.3575 39.9146C24.3952 40.2569 24.4799 40.6038 24.6682 41.1806C24.9695 42.1089 25.5109 43.75 26.0994 45.5411C26.3301 46.2351 26.8573 47.8527 27.2763 49.128C27.6953 50.4034 28.2226 52.0163 28.4532 52.715C28.6839 53.4089 29.0417 54.4967 29.2488 55.1297C29.456 55.7627 29.7055 56.5316 29.809 56.8411C29.9173 57.1693 30.0068 57.3756 30.0256 57.3334C30.1857 56.9536 31.6545 52.654 32.596 49.8314C33.9094 45.8693 34.3755 44.4299 35.1382 41.9777C35.4253 41.0493 35.7125 40.135 35.7784 39.9427C35.9243 39.4832 35.8914 39.4598 35.2323 39.5629C34.3378 39.7036 33.7117 40.3694 33.2551 41.6494C33.1091 42.0714 32.9208 42.8029 32.5489 44.4393C32.3371 45.377 32.1017 46.1319 31.8946 46.5445C31.8192 46.6899 31.7298 46.9103 31.6874 47.0415C31.645 47.1681 31.3155 48.1809 30.953 49.2922C30.5905 50.3987 30.261 51.4255 30.2139 51.5662C30.1715 51.7069 30.1198 51.8429 30.1009 51.8616C30.0774 51.885 30.0068 51.7256 29.9362 51.5099C29.8279 51.1677 29.5172 50.2205 27.926 45.377C27.7188 44.744 27.5117 44.1111 27.4646 43.9704C27.4175 43.8297 27.2104 43.1967 27.0033 42.5638C26.1418 39.9427 25.0919 36.7356 24.9178 36.2105C24.0657 33.5894 22.3568 28.4974 22.3332 28.4974C22.3191 28.4974 22.2014 28.6662 22.079 28.8725Z" fill="#D3CAFF"/>
<path d="M57.4715 39.3754C57.0572 39.4833 56.7136 39.6521 56.3652 39.9193C55.6544 40.4632 55.1412 41.2884 54.3503 43.1593C53.5924 44.9551 53.3288 45.499 52.9051 46.1366C52.6226 46.5586 52.1471 47.065 51.7799 47.337C51.6246 47.4495 51.3092 47.759 51.0738 48.0215C49.3602 49.9721 47.51 51.5756 45.368 52.9916C44.2759 53.7043 43.4379 54.1826 42.2233 54.7781C38.895 56.4051 35.7314 57.2537 32.0641 57.4976L31.598 57.5304L31.3862 57.8586C31.2685 58.0368 31.099 58.3462 31.0049 58.5432C30.8589 58.8526 30.8354 58.9558 30.8307 59.2418C30.8307 59.5512 30.8401 59.5888 30.9719 59.7247C31.2261 59.9873 31.6828 60.0576 32.5019 59.9545C33.0857 59.8841 33.6836 59.7576 35.2088 59.3731C35.9621 59.1855 36.7012 59.0167 36.8565 58.998C37.6004 58.9136 39.5258 58.3415 40.9664 57.7836C47.0864 55.4064 52.4484 50.877 55.9556 45.1192C56.6618 43.9611 57.3821 42.5497 57.9235 41.2744C58.1118 40.8336 58.6767 39.3567 58.6767 39.3051C58.6767 39.2441 57.7728 39.2957 57.4715 39.3754Z" fill="#D3CAFF"/>
<path d="M2.51393 39.7084C1.89722 39.9522 1.90663 40.7821 2.54217 42.3201C3.01765 43.4641 4.04863 45.2224 4.91014 46.3571C5.05608 46.5446 5.35266 46.9479 5.56922 47.248C7.12276 49.4001 9.20826 51.5804 11.3408 53.2777C16.6182 57.4789 22.9406 59.7717 28.9712 59.6685C30.0257 59.6498 30.021 59.6592 29.569 59.0918C28.8723 58.2197 27.8601 57.5961 26.5655 57.2491C25.9959 57.0944 24.9932 56.9256 23.5573 56.7474C22.8182 56.6537 21.9944 56.5364 21.7213 56.4849C20.2243 56.2035 19.1509 55.7815 18.3365 55.1532C18.1576 55.0173 17.6962 54.7453 17.3102 54.5484C13.2992 52.5228 9.599 49.2126 6.93916 45.2599C6.0447 43.9377 5.01371 42.0247 4.42996 40.618C4.13808 39.9241 4.13337 39.9147 3.479 39.7506C3.08356 39.6521 2.70694 39.6334 2.51393 39.7084Z" fill="#D3CAFF"/>
<ellipse cx="30.7798" cy="29.9217" rx="18.1128" ry="18.0501" fill="white"/>
<path d="M30.7797 11.8697C20.7764 11.8697 12.667 19.951 12.667 29.9197C12.667 37.5666 17.4412 44.1037 24.179 46.7337C24.0207 45.3056 23.8776 43.1092 24.2418 41.5502C24.571 40.1414 26.3657 32.5781 26.3657 32.5781C26.3657 32.5781 25.8239 31.4968 25.8239 29.8983C25.8239 27.3884 27.2837 25.5147 29.1014 25.5147C30.6467 25.5147 31.3931 26.6708 31.3931 28.0572C31.3931 29.6059 30.4036 31.9213 29.893 34.0671C29.4663 35.8636 30.7971 37.3287 32.5752 37.3287C35.7945 37.3287 38.2691 33.946 38.2691 29.0632C38.2691 24.7414 35.1529 21.7198 30.7033 21.7198C25.5496 21.7198 22.5245 25.5719 22.5245 29.5529C22.5245 31.1043 23.1242 32.7678 23.8725 33.6722C24.0206 33.8509 24.0422 34.0074 23.9981 34.1899C23.8607 34.76 23.5551 35.986 23.4951 36.2369C23.4161 36.5673 23.2326 36.6374 22.8893 36.4782C20.6272 35.4289 19.2128 32.1329 19.2128 29.4856C19.2128 23.7918 23.3642 18.5627 31.1806 18.5627C37.4639 18.5627 42.3468 23.0246 42.3468 28.9876C42.3468 35.2083 38.4109 40.2147 32.9479 40.2147C31.1125 40.2147 29.387 39.2645 28.7964 38.142C28.7964 38.142 27.8882 41.5883 27.668 42.4329C27.2591 44.0007 26.1552 45.9659 25.4168 47.1648C27.1115 47.6877 28.9125 47.9697 30.7797 47.9697C40.7832 47.9697 48.8926 39.8884 48.8926 29.9197C48.8926 19.951 40.7832 11.8697 30.7797 11.8697Z" fill="#9D51FE"/>
</svg>
